<svg version="1.1" xmlns="http://www.w3.org/2000/svg" xmlns:xlink="http://www.w3.org/1999/xlink" width="512" height="512" viewBox="0,0,256,256"><g fill="#fffefe" fill-rule="nonzero" stroke="none" stroke-width="1" stroke-linecap="butt" stroke-linejoin="miter" stroke-miterlimit="10" stroke-dasharray="" stroke-dashoffset="0" font-family="none" font-weight="none" font-size="none" text-anchor="none" style="mix-blend-mode: normal"><g transform="translate(0,0.00002) scale(4.26667,4.26667)"><g><g><path d="M0,32v2c0.00409,1.33069 0.88624,2.49888 2.165,2.867l4.177,19.19c0.49694,2.2976 2.52727,3.93877 4.878,3.943h37.56c2.34854,-0.00409 4.3777,-1.64215 4.877,-3.937l4.178,-19.2c1.27734,-0.36771 2.15914,-1.5338 2.165,-2.863v-2c0,-1.65685 -1.34315,-3 -3,-3h-1.618c-0.82305,-2.86257 -1.95714,-5.62638 -3.382,-8.242v-2.758c-0.00525,-1.26679 -0.80565,-2.39375 -2,-2.816v-4.784l2.842,-2.97l0.867,0.867c1.18437,1.13195 3.04963,1.13195 4.234,0l1.18,-1.18c1.16582,-1.17058 1.16582,-3.06342 0,-4.234l-2,-2c-0.56092,-0.56667 -1.32566,-0.88475 -2.123,-0.883h-20c-1.10457,0 -2,0.89543 -2,2v3c0,1.10457 0.89543,2 2,2h1v3.5l-1.8,1.351c-1.32548,0.99411 -1.59411,2.87452 -0.6,4.2c0.99411,1.32548 2.87452,1.59411 4.2,0.6l3.005,-2.251c0.75034,-0.57026 1.19214,-1.45756 1.195,-2.4v-4.333l2,2.666v4.851c-1.19435,0.42225 -1.99475,1.54921 -2,2.816v2.838l-0.81,2.438c-0.72973,2.18763 -1.99878,4.1562 -3.69,5.724h-3.5v-6c0.00331,-2.38918 -0.94486,-4.68133 -2.635,-6.37c-0.43299,-0.42872 -0.9073,-0.81359 -1.416,-1.149c0.02817,-0.08169 0.04532,-0.16677 0.051,-0.253v-8.561c-0.00096,-0.59526 -0.31869,-1.14501 -0.834,-1.443c-0.50913,-0.29854 -1.13987,-0.29854 -1.649,0c-1.6054,0.69302 -3.4256,0.69302 -5.031,0c-0.51,-0.3 -1.142,-0.3 -1.652,0c-0.51531,0.29799 -0.83304,0.84774 -0.834,1.443v8.561c0.005,0.09 0.023,0.179 0.053,0.264c-0.56178,0.37221 -1.08032,0.80589 -1.546,1.293c-0.049,-0.051 -0.091,-0.1 -0.142,-0.155c-0.43299,-0.42872 -0.9073,-0.81359 -1.416,-1.149c0.02817,-0.08169 0.04532,-0.16677 0.051,-0.253v-7.228c0,-2.76142 -2.23858,-5 -5,-5c-2.76142,0 -5,2.23858 -5,5v7.228c0.005,0.09 0.023,0.178 0.053,0.262c-2.52837,1.6621 -4.05142,4.48424 -4.053,7.51v6c-1.65685,0 -3,1.34315 -3,3zM2,32c0,-0.55228 0.44772,-1 1,-1h4v4h-4c-0.55228,0 -1,-0.44772 -1,-1zM17,24c0.55228,0 1,0.44772 1,1v16c0,0.55228 -0.44772,1 -1,1h-7c-0.55228,0 -1,-0.44772 -1,-1v-16c0,-0.55228 0.44772,-1 1,-1zM16.319,52.867c0.0713,0.53707 -0.29805,1.03324 -0.833,1.119c-0.54883,0.06987 -1.05482,-0.30631 -1.146,-0.852l-1.254,-9.134h2.014zM51.7,55.643c-0.29914,1.37384 -1.51397,2.35444 -2.92,2.357h-37.56c-1.40704,-0.00544 -2.62125,-0.98803 -2.92,-2.363l-4.059,-18.637h2.759v4c0,1.65685 1.34315,3 3,3h1.069l1.29,9.409c0.21157,1.48049 1.47549,2.58275 2.971,2.591c0.134,-0.002 0.267,-0.012 0.4,-0.029c0.78941,-0.10531 1.50433,-0.52079 1.98663,-1.15454c0.4823,-0.63375 0.69224,-1.43354 0.58337,-2.22246l-1.185,-8.606c1.60714,-0.06164 2.87975,-1.37969 2.885,-2.988v-4h35.759zM58,34c0,0.55228 -0.44772,1 -1,1h-37v-4h37c0.55228,0 1,0.44772 1,1zM46,11h2v4h-2zM35,2h3v3h-3zM39.6,12.8l-3,2.25c-0.44183,0.33137 -1.06863,0.24183 -1.4,-0.2c-0.33137,-0.44183 -0.24183,-1.06863 0.2,-1.4l2.2,-1.65c0.25181,-0.18885 0.4,-0.48524 0.4,-0.8v-4h2v5c-0.002,0.314 -0.15,0.61 -0.4,0.8zM42,5h-2v-3h15c0.266,0 0.52,0.105 0.708,0.293l2,2c0.38508,0.38957 0.38508,1.01643 0,1.406l-1.18,1.179c-0.3932,0.37613 -1.0128,0.37613 -1.406,0l-1.59,-1.59c-0.18806,-0.18547 -0.44187,-0.28901 -0.706,-0.288h-0.011c-0.26891,0.00321 -0.52519,0.11459 -0.711,0.309l-3.532,3.691h-3.072l-2.7,-3.6c-0.18885,-0.25181 -0.48524,-0.4 -0.8,-0.4zM44,18c0,-0.55228 0.44772,-1 1,-1h4c0.55228,0 1,0.44772 1,1v2h-6zM43.089,23.905l0.633,-1.905h6.668c1.19627,2.2327 2.17092,4.57723 2.91,7h-13.044c1.25413,-1.50658 2.21502,-3.2347 2.833,-5.095zM22,7.21c1.93283,0.73304 4.06717,0.73304 6,0v7.313c-1.93899,-0.69865 -4.06101,-0.69865 -6,0zM25,16c1.85741,-0.00293 3.63959,0.73363 4.95298,2.04702c1.31339,1.31339 2.04995,3.09557 2.04702,4.95298v6h-2v-5c0,-0.55228 -0.44772,-1 -1,-1c-0.55228,0 -1,0.44772 -1,1v5h-8v-4c-0.00238,-1.24506 -0.77356,-2.35925 -1.938,-2.8c0.12853,-1.18259 0.55936,-2.31218 1.251,-3.28c1.31667,-1.83022 3.43238,-2.91654 5.687,-2.92zM12,5c1.65685,0 3,1.34315 3,3v1h-6v-1c0,-1.65685 1.34315,-3 3,-3zM9,11h6v3.522c-1.9391,-0.69798 -4.0609,-0.69798 -6,0zM5,23c-0.00263,-2.833 1.70259,-5.38827 4.31968,-6.47303c2.61709,-1.08476 5.63,-0.48512 7.63232,1.51903c0.121,0.121 0.231,0.244 0.337,0.367c-0.6566,1.0949 -1.06995,2.31824 -1.212,3.587h-6.077c-1.65685,0 -3,1.34315 -3,3v4h-2z"></path><path d="M46.59,39.028c-0.78853,-0.10875 -1.58796,0.10034 -2.22227,0.58123c-0.63431,0.48089 -1.05151,1.19416 -1.15973,1.98277l-1.51,11c-0.15642,1.06693 0.27181,2.13572 1.12164,2.79948c0.84984,0.66376 1.99053,0.82035 2.9878,0.41017c0.99727,-0.41019 1.69767,-1.32404 1.83456,-2.39365l1.509,-11c0.22535,-1.64035 -0.92086,-3.15311 -2.561,-3.38zM45.661,53.136c-0.07511,0.54731 -0.57969,0.93011 -1.127,0.855c-0.54731,-0.07511 -0.93011,-0.57969 -0.855,-1.127l1.509,-11c0.03621,-0.26328 0.17572,-0.50131 0.38774,-0.66155c0.21202,-0.16023 0.47909,-0.22948 0.74226,-0.19245c0.26305,0.03576 0.50108,0.17464 0.66165,0.38604c0.16057,0.2114 0.23049,0.47797 0.19435,0.74096zM26.291,39.772c-0.58413,-0.53194 -1.35586,-0.80969 -2.145,-0.772c-0.79508,0.03807 -1.54244,0.39055 -2.07753,0.97985c-0.53509,0.5893 -0.81406,1.3671 -0.77547,2.16215l0.53,11c0.07742,1.59997 1.39816,2.85687 3,2.855h0.147c0.7949,-0.03832 1.542,-0.39092 2.07688,-0.98019c0.53488,-0.58927 0.81371,-1.36692 0.77512,-2.16181l-0.53,-11c-0.04,-0.8 -0.4,-1.552 -1.001,-2.083zM24.873,54l-0.055,1v-1c-0.53407,0.00062 -0.97436,-0.41855 -1,-0.952l-0.53,-11c-0.01301,-0.26696 0.08139,-0.52801 0.26213,-0.72491c0.18074,-0.1969 0.43278,-0.31325 0.69987,-0.32309h0.05c0.24197,0.00287 0.47441,0.09471 0.653,0.258c0.20027,0.17712 0.32127,0.42705 0.336,0.694l0.53,11c0.02721,0.55029 -0.39581,1.01892 -0.946,1.048zM35.854,39c-1.64834,-0.06161 -3.04371,1.20538 -3.141,2.852l-0.53,11c-0.04022,0.79656 0.23841,1.57635 0.77432,2.16705c0.53591,0.5907 1.28498,0.94369 2.08168,0.98095h0.143c1.59991,-0.0008 2.91767,-1.25696 2.995,-2.855l0.53,-11c0.03941,-0.79556 -0.23918,-1.57413 -0.77437,-2.16409c-0.53518,-0.58996 -1.28301,-0.94286 -2.07863,-0.98091zM36.179,53.045c-0.02564,0.53345 -0.46593,0.95262 -1,0.952v1l-0.051,-1c-0.55137,-0.02696 -0.9766,-0.49561 -0.95,-1.047l0.53,-11c0.02055,-0.53577 0.46387,-0.95781 1,-0.952h0.051c0.55137,0.02696 0.9766,0.49561 0.95,1.047z"></path><circle cx="25" cy="11" r="1"></circle></g></g></g></g></svg>