<svg version="1.1" xmlns="http://www.w3.org/2000/svg" xmlns:xlink="http://www.w3.org/1999/xlink" width="512" height="512" viewBox="0,0,256,256"><g fill="#ffffff" fill-rule="nonzero" stroke="none" stroke-width="1" stroke-linecap="butt" stroke-linejoin="miter" stroke-miterlimit="10" stroke-dasharray="" stroke-dashoffset="0" font-family="none" font-weight="none" font-size="none" text-anchor="none" style="mix-blend-mode: normal"><g transform="translate(-0.00477,-0.68774) scale(4.26667,4.26667)"><g><g><path d="M3,60h5c0.84849,-0.00266 1.65576,-0.36629 2.22,-1h25.08c1.46742,0.00061 2.90667,-0.40279 4.16,-1.166l18.74,-11.408c0.88617,-0.53518 1.51014,-1.41448 1.72272,-2.42766c0.21257,-1.01317 -0.00537,-2.06912 -0.60172,-2.91534c-0.95043,-1.35246 -2.67385,-1.92382 -4.244,-1.407l-7.077,2.353v-21.029h1.31c0.83848,0.00448 1.59074,-0.51454 1.8842,-1.3c0.29346,-0.78546 0.06581,-1.67059 -0.5702,-2.217l-2.624,-2.265v-11.218c0,-1.10457 -0.89543,-2 -2,-2h-5c-1.10457,0 -2,0.89543 -2,2v3.448l-7.7,-6.648c-0.74968,-0.63683 -1.85032,-0.63683 -2.6,0l-19.327,16.686c-0.63404,0.54726 -0.85993,1.43164 -0.56599,2.21592c0.29394,0.78429 1.04544,1.30235 1.88299,1.29808h1.31v14h-1.184c-0.42225,-1.19435 -1.54921,-1.99475 -2.816,-2h-5c-1.65685,0 -3,1.34315 -3,3v21c0,1.65685 1.34315,3 3,3zM55.7,41.569c0.68617,-0.22531 1.4403,-0.00701 1.9,0.55c0.01506,0.02484 0.03142,0.04887 0.049,0.072c0.29474,0.39188 0.40956,0.89034 0.31596,1.37168c-0.0936,0.48134 -0.38684,0.90044 -0.80696,1.15332l-18.738,11.41c-0.94017,0.57194 -2.01953,0.8743 -3.12,0.874h-24.3v-20h1.8c1.84511,0.00207 3.63495,0.62995 5.077,1.781c1.79631,1.43302 4.02512,2.2152 6.323,2.219h5.23c1.39448,0.00372 2.68736,0.73002 3.416,1.919c0.00999,0.02249 0.021,0.04451 0.033,0.066c0.628,0.915 0.6,2.13 -0.07,3.015h-6.089c-1.97445,0.00126 -3.90453,0.58572 -5.548,1.68l-0.73,0.49c-0.4584,0.30817 -0.58017,0.9296 -0.272,1.388c0.30817,0.4584 0.9296,0.58017 1.388,0.272l0.724,-0.486c1.31447,-0.87577 2.85851,-1.34336 4.438,-1.344h8.89c0.54,0 1.075,-0.087 1.586,-0.261zM37,45.7l-0.444,0.148c-0.30487,0.1022 -0.62447,0.15355 -0.946,0.152h-0.545c0.44108,-1.32764 0.28266,-2.78151 -0.434,-3.983c-0.01591,-0.03442 -0.03394,-0.06782 -0.054,-0.1c-1.08736,-1.80467 -3.03807,-2.91064 -5.145,-2.917h-5.232c-0.40194,-0.00329 -0.80306,-0.03672 -1.2,-0.1v-1.9c0,-3.86599 3.13401,-7 7,-7c3.86599,0 7,3.13401 7,7zM41,4h5v9.492l-5,-4.317zM16,21c0.55228,0 1,-0.44772 1,-1c0,-0.55228 -0.44772,-1 -1,-1h-5.317l19.317,-16.683l9.3,8.03l10.01,8.653h-13.31c-0.55228,0 -1,0.44772 -1,1c0,0.55228 0.44772,1 1,1h10v21.7l-7,2.333v-8.033c0,-4.97056 -4.02944,-9 -9,-9c-4.97056,0 -9,4.02944 -9,9v1.336c-0.67272,-0.28567 -1.30349,-0.66144 -1.875,-1.117c-1.47684,-1.17443 -3.25137,-1.91471 -5.125,-2.138v-14.081zM2,36c0,-0.55228 0.44772,-1 1,-1h5c0.55228,0 1,0.44772 1,1v21c0,0.55228 -0.44772,1 -1,1h-5c-0.55228,0 -1,-0.44772 -1,-1zM12,5c0.55228,0 1,-0.44772 1,-1v-2c0,-0.55228 -0.44772,-1 -1,-1c-0.55228,0 -1,0.44772 -1,1v2c0,0.55228 0.44772,1 1,1zM12,7c-0.55228,0 -1,0.44772 -1,1v2c0,0.55228 0.44772,1 1,1c0.55228,0 1,-0.44772 1,-1v-2c0,-0.55228 -0.44772,-1 -1,-1zM14,7h2c0.55228,0 1,-0.44772 1,-1c0,-0.55228 -0.44772,-1 -1,-1h-2c-0.55228,0 -1,0.44772 -1,1c0,0.55228 0.44772,1 1,1zM8,7h2c0.55228,0 1,-0.44772 1,-1c0,-0.55228 -0.44772,-1 -1,-1h-2c-0.55228,0 -1,0.44772 -1,1c0,0.55228 0.44772,1 1,1z"></path><path d="M55.5,29.5c0.26519,-0.00006 0.51951,-0.10545 0.707,-0.293l1.5,-1.5c0.37897,-0.39238 0.37355,-1.01608 -0.01218,-1.40182c-0.38573,-0.38573 -1.00944,-0.39115 -1.40182,-0.01218l-1.5,1.5c-0.28591,0.28599 -0.37142,0.71604 -0.21668,1.08965c0.15474,0.37362 0.51928,0.61726 0.92368,0.61735zM51.793,30.793l-1.5,1.5c-0.25996,0.25107 -0.36421,0.62288 -0.2727,0.97251c0.09152,0.34963 0.36456,0.62267 0.71419,0.71419c0.34963,0.09152 0.72143,-0.01274 0.97251,-0.2727l1.5,-1.5c0.37897,-0.39238 0.37355,-1.01608 -0.01218,-1.40182c-0.38573,-0.38573 -1.00944,-0.39115 -1.40182,-0.01218zM56.293,33.707c0.39238,0.37897 1.01608,0.37355 1.40182,-0.01218c0.38573,-0.38573 0.39115,-1.00944 0.01218,-1.40182l-1.5,-1.5c-0.39238,-0.37897 -1.01608,-0.37355 -1.40182,0.01218c-0.38573,0.38573 -0.39115,1.00944 -0.01218,1.40182zM50.293,26.293c-0.39038,0.3905 -0.39038,1.0235 0,1.414l1.5,1.5c0.39238,0.37897 1.01608,0.37355 1.40182,-0.01218c0.38573,-0.38573 0.39115,-1.00944 0.01218,-1.40182l-1.5,-1.5c-0.3905,-0.39038 -1.0235,-0.39038 -1.414,0zM20,21c2.76005,0.00331 4.99669,2.23995 5,5c0,0.55228 0.44772,1 1,1c0.55228,0 1,-0.44772 1,-1c0.00331,-2.76005 2.23995,-4.99669 5,-5c0.55228,0 1,-0.44772 1,-1c0,-0.55228 -0.44772,-1 -1,-1c-2.76005,-0.00331 -4.99669,-2.23995 -5,-5c0,-0.55228 -0.44772,-1 -1,-1c-0.55228,0 -1,0.44772 -1,1c-0.00331,2.76005 -2.23995,4.99669 -5,5c-0.55228,0 -1,0.44772 -1,1c0,0.55228 0.44772,1 1,1zM26,17.6c0.59313,0.98311 1.41689,1.80687 2.4,2.4c-0.98311,0.59313 -1.80687,1.41689 -2.4,2.4c-0.59313,-0.98311 -1.41689,-1.80687 -2.4,-2.4c0.98311,-0.59313 1.80687,-1.41689 2.4,-2.4z"></path></g></g></g></g></svg>