<svg version="1.1" xmlns="http://www.w3.org/2000/svg" xmlns:xlink="http://www.w3.org/1999/xlink" width="512" height="512" viewBox="0,0,256,256"><g fill="#ffffff" fill-rule="nonzero" stroke="none" stroke-width="1" stroke-linecap="butt" stroke-linejoin="miter" stroke-miterlimit="10" stroke-dasharray="" stroke-dashoffset="0" font-family="none" font-weight="none" font-size="none" text-anchor="none" style="mix-blend-mode: normal"><g transform="translate(-0.00066,-0.00002) scale(4,4)"><g><g><path d="M4,17h0.1l4.47,41.132c0.29826,2.77278 2.64123,4.87325 5.43,4.868h23.838c2.10372,0.00055 4.19496,-0.32325 6.2,-0.96l2.01,0.5c2.66524,0.74413 5.50296,0.57373 8.06,-0.484l1.829,0.456c1.28908,0.32335 2.61298,0.48725 3.942,0.488c1.2624,0.0001 2.40054,-0.76031 2.88365,-1.92661c0.48311,-1.1663 0.21605,-2.50878 -0.67665,-3.40139c-2.03525,-2.04406 -3.3579,-4.68936 -3.772,-7.544l-0.22,-1.546c-0.06299,-0.43516 -0.0944,-0.87431 -0.094,-1.314c0.00058,-0.76045 0.0936,-1.518 0.277,-2.256l0.4,-1.61c0.35583,-1.42578 0.41471,-2.9095 0.173,-4.359l-0.717,-4.3c-0.73137,-4.47271 -4.6009,-7.75332 -9.133,-7.743h-1.95l2.84,-5.544c0.19037,-0.37107 0.13047,-0.82132 -0.15031,-1.1297c-0.28077,-0.30838 -0.72345,-0.41013 -1.11069,-0.2553l-4.7,1.88l-0.555,-0.138l0.526,-4.813h0.1c1.65685,0 3,-1.34315 3,-3v-2c-0.00247,-0.14464 -0.0366,-0.28698 -0.1,-0.417c0.06237,-0.18822 0.09608,-0.38475 0.1,-0.583c0,-2.20914 -1.79086,-4 -4,-4h-11v-2c0,-2.20914 -1.79086,-4 -4,-4h-8c-2.20914,0 -4,1.79086 -4,4v2h-11c-2.20914,0 -4,1.79086 -4,4c0.00392,0.19825 0.03763,0.39478 0.1,0.583c-0.0634,0.13002 -0.09753,0.27236 -0.1,0.417v2c0,1.65685 1.34315,3 3,3zM44.371,23.929l2.522,-1.009l-2.369,4.624c-0.15884,0.31001 -0.14492,0.68034 0.03676,0.97754c0.18167,0.29721 0.50491,0.47846 0.85324,0.47846h3.586c3.55341,-0.00915 6.58838,2.56151 7.164,6.068l0.718,4.3c0.19583,1.1796 0.1475,2.38683 -0.142,3.547l-0.4,1.609c-0.35474,1.4182 -0.43115,2.89172 -0.225,4.339l0.221,1.545c0.47601,3.28276 1.99718,6.32475 4.338,8.675c0.32331,0.32058 0.4206,0.80487 0.24618,1.22544c-0.17442,0.42057 -0.58589,0.69387 -1.04118,0.69156c-1.16605,-0.00051 -2.32767,-0.14357 -3.459,-0.426l-2.178,-0.544c-0.23126,-0.05793 -0.47562,-0.03133 -0.689,0.075c-2.20821,0.99053 -4.69572,1.16765 -7.022,0.5l-2.248,-0.563l-0.283,-0.097c-1.6167,-0.54039 -3.08615,-1.44815 -4.293,-2.652l-1.414,1.414c0.79425,0.78607 1.68662,1.46635 2.655,2.024c-1.02723,0.17721 -2.0676,0.2672 -3.11,0.269h-7.538c-0.71797,0 -1.3,-0.58203 -1.3,-1.3c-0.00071,-0.25713 0.07557,-0.50859 0.219,-0.722c1.08779,-1.64384 1.81351,-3.50024 2.129,-5.446h0.008l0.006,-0.071c0.01,-0.065 0.03,-0.13 0.039,-0.2l0.273,-1.908c0.14068,-0.94375 0.68922,-1.77791 1.5,-2.281l0.672,0.168c2.0125,0.50424 4.07929,0.75948 6.154,0.76v-2c-1.91084,-0.00087 -3.81436,-0.23596 -5.668,-0.7l-0.98,-0.245l-0.413,-0.206c-0.57024,-0.28326 -0.93257,-0.8633 -0.937,-1.5l0.008,-0.093c0.00268,-0.11274 0.01641,-0.22494 0.041,-0.335l1.191,-4.768c0.50348,-2.01226 0.75805,-4.07871 0.758,-6.153c0.01076,-1.59816 0.77459,-3.09765 2.061,-4.046c0.85678,-0.64862 1.9055,-0.9928 2.98,-0.978l2.951,0.024h0.008c0.32127,-0.00024 0.62285,-0.15483 0.81063,-0.4155c0.18778,-0.26067 0.23889,-0.59569 0.13737,-0.9005l-1.424,-4.272l2.234,0.558c0.2035,0.05183 0.41822,0.03746 0.613,-0.041zM35.361,28.047c-0.185,0.114 -0.376,0.215 -0.551,0.347c-0.62458,0.47328 -1.16541,1.04791 -1.6,1.7l0.714,-9.094h1.994zM41.416,21.323l-1.174,-0.293c-0.35382,-0.08789 -0.72743,0.02374 -0.97504,0.29133c-0.24761,0.26759 -0.32998,0.64872 -0.21496,0.99467l1.556,4.672l-1.55,-0.012c-0.54717,0.0042 -1.0918,0.07472 -1.622,0.21l0.564,-7.107c0.02208,-0.27862 -0.07344,-0.55376 -0.26343,-0.75875c-0.18998,-0.20499 -0.45708,-0.32112 -0.73657,-0.32025h-4c-0.52285,-0.00163 -0.9587,0.39978 -1,0.921l-2.625,33.286c-0.26882,1.66434 -0.88927,3.25228 -1.82,4.658c-0.62085,0.92892 -0.72816,2.10935 -0.285,3.135h-13.27c-1.76638,0.00239 -3.24975,-1.32868 -3.438,-3.085l-4.447,-40.915h35.77zM45,14c0,0.55228 -0.44772,1 -1,1h-40c-0.55228,0 -1,-0.44772 -1,-1v-1h42zM18,5c0,-1.10457 0.89543,-2 2,-2h8c1.10457,0 2,0.89543 2,2v2h-12zM5,9h38c1.10457,0 2,0.89543 2,2h-42c0,-1.10457 0.89543,-2 2,-2z"></path><path d="M22,59h4c0.55228,0 1,-0.44772 1,-1v-38c0,-0.55228 -0.44772,-1 -1,-1h-4c-0.55228,0 -1,0.44772 -1,1v38c0,0.55228 0.44772,1 1,1zM23,21h2v36h-2zM13,58.079c0.0413,0.52122 0.47715,0.92263 1,0.921h4c0.27949,0.00087 0.54659,-0.11526 0.73657,-0.32025c0.18998,-0.20499 0.28551,-0.48013 0.26343,-0.75875l-3,-38c-0.0413,-0.52122 -0.47715,-0.92263 -1,-0.921h-4c-0.27949,-0.00087 -0.54659,0.11526 -0.73657,0.32025c-0.18998,0.20499 -0.28551,0.48013 -0.26343,0.75875zM14.076,21l2.842,36h-1.994l-2.842,-36zM55.316,42.948l-0.632,-1.9c-1.88481,0.62957 -3.85882,0.95103 -5.846,0.952h-2.838v2h2.838c2.2019,0.00051 4.38942,-0.35473 6.478,-1.052z"></path></g></g></g></g></svg>