<svg version="1.1" xmlns="http://www.w3.org/2000/svg" xmlns:xlink="http://www.w3.org/1999/xlink" width="512" height="512" viewBox="0,0,256,256"><g fill="#ffffff" fill-rule="nonzero" stroke="none" stroke-width="1" stroke-linecap="butt" stroke-linejoin="miter" stroke-miterlimit="10" stroke-dasharray="" stroke-dashoffset="0" font-family="none" font-weight="none" font-size="none" text-anchor="none" style="mix-blend-mode: normal"><g transform="translate(0.02969,-0.03628) scale(4.41379,4.26667)"><g><g><path d="M7.959,28.463c-0.041,0.089 -0.083,0.173 -0.124,0.264c-0.80728,1.81212 -2.12852,3.34754 -3.8,4.416l-2.763,1.757c-0.70225,0.44793 -1.16353,1.19011 -1.2543,2.0181c-0.09077,0.82798 0.19877,1.65247 0.7873,2.2419l12.047,12.048c0.51458,0.51339 1.21212,0.80119 1.939,0.8c0.103,0.003 0.206,0 0.309,-0.008c0.82896,-0.08915 1.57179,-0.55208 2.017,-1.257c1.27716,-1.96014 3.17731,-3.43297 5.394,-4.181c0.83683,-0.29786 1.63806,-0.68757 2.389,-1.162l2.437,2.436c1.04306,1.04727 2.69576,1.17277 3.885,0.295l11.571,11.576c0.39238,0.37897 1.01608,0.37355 1.40182,-0.01218c0.38573,-0.38573 0.39115,-1.00944 0.01218,-1.40182l-11.543,-11.543l4.086,-4.086l9.293,9.293c0.39238,0.37897 1.01608,0.37355 1.40182,-0.01218c0.38573,-0.38573 0.39115,-1.00944 0.01218,-1.40182l-9.293,-9.293l3.586,-3.586l3.793,3.793c0.39238,0.37897 1.01608,0.37355 1.40182,-0.01218c0.38573,-0.38573 0.39115,-1.00944 0.01218,-1.40182l-3.793,-3.793l3.586,-3.586l7.793,7.793c0.39238,0.37897 1.01608,0.37355 1.40182,-0.01218c0.38573,-0.38573 0.39115,-1.00944 0.01218,-1.40182l-7.825,-7.825c0.87777,-1.18924 0.75227,-2.84194 -0.295,-3.885l-5.918,-5.918c0.058,-0.247 0.089,-0.499 0.091,-0.752c0.0032,-0.89608 -0.35263,-1.75612 -0.988,-2.388c-0.34,-0.335 -0.75,-0.59 -1.2,-0.746l1.2,-1.2c1.31728,-1.31951 1.31728,-3.45649 0,-4.776c-1.33552,-1.27799 -3.44048,-1.27799 -4.776,0l-0.627,0.627c-0.3366,-0.90493 -1.04811,-1.62007 -1.95132,-1.96127c-0.90321,-0.34119 -1.90984,-0.2751 -2.76068,0.18127l-9.515,-9.513c-1.18548,-1.14361 -3.06352,-1.14361 -4.249,0l-16.256,16.251c-0.56828,0.56088 -0.88816,1.32605 -0.88816,2.1245c0,0.79845 0.31988,1.56362 0.88816,2.1245zM46.715,29.455c0.00047,0.2654 -0.10457,0.5201 -0.292,0.708l-16.26,16.26c-0.39676,0.37689 -1.01924,0.37689 -1.416,0l-2.211,-2.211c0.281,-0.239 0.457,-0.408 0.478,-0.429l8.4,-8.405c0.66288,-0.66376 1.01998,-1.57322 0.98585,-2.51068c-0.03414,-0.93746 -0.45645,-1.81853 -1.16585,-2.43232c-0.29946,-0.25627 -0.64353,-0.45525 -1.015,-0.587l6.65,-6.649l5.549,5.549c0.19,0.186 0.297,0.441 0.297,0.707zM33.445,12.405c0.53542,0.53896 0.53542,1.40904 0,1.948l-7.845,7.847c-0.25996,0.25107 -0.36421,0.62288 -0.2727,0.97251c0.09152,0.34963 0.36456,0.62267 0.71419,0.71419c0.34963,0.09152 0.72143,-0.01274 0.97251,-0.2727l7.844,-7.844l2.8,-2.8c0.54456,-0.52166 1.40344,-0.52166 1.948,0c0.536,0.539 0.536,1.41 0,1.948l-10.644,10.641c-0.25996,0.25107 -0.36421,0.62288 -0.2727,0.97251c0.09152,0.34963 0.36456,0.62267 0.71419,0.71419c0.34963,0.09152 0.72143,-0.01274 0.97251,-0.2727l7.284,-7.284c0.54435,-0.52218 1.40365,-0.52218 1.948,0c0.536,0.539 0.536,1.41 0,1.948l-8.4,8.405c-0.06727,0.07381 -0.1229,0.15744 -0.165,0.248c-0.17481,0.12122 -0.33876,0.2574 -0.49,0.407l-4.393,4.387c-0.39102,0.39047 -0.39147,1.02398 -0.001,1.415c0.39047,0.39102 1.02398,0.39147 1.415,0.001l4.388,-4.388c0.51781,-0.54907 1.36599,-0.62019 1.968,-0.165c0.28942,0.25061 0.46181,0.61012 0.47603,0.9927c0.01422,0.38258 -0.13102,0.75389 -0.40103,1.0253l-8.4,8.4c-1.08483,1.00762 -2.35922,1.78945 -3.749,2.3c-2.64401,0.89632 -4.90863,2.65785 -6.428,5c-0.1219,0.19102 -0.32382,0.31649 -0.54907,0.34117c-0.22525,0.02468 -0.44955,-0.05408 -0.60993,-0.21417l-12.05,-12.046c-0.16047,-0.16038 -0.23948,-0.38493 -0.21479,-0.61047c0.02469,-0.22553 0.15041,-0.42767 0.34179,-0.54953l2.76,-1.756c2.00213,-1.27758 3.5855,-3.11442 4.554,-5.283c0.79724,-1.97141 1.92924,-3.79018 3.346,-5.376l11.112,-11.111c0.51705,-0.54982 1.36558,-0.621 1.967,-0.165c0.28942,0.25061 0.46181,0.61012 0.47603,0.9927c0.01422,0.38258 -0.13102,0.75389 -0.40103,1.0253l-3.922,3.922c-0.25996,0.25107 -0.36421,0.62288 -0.2727,0.97251c0.09152,0.34963 0.36456,0.62267 0.71419,0.71419c0.34963,0.09152 0.72143,-0.01274 0.97251,-0.2727l3.922,-3.922l3.926,-3.922c0.544,-0.52 1.4,-0.52 1.945,0zM2.3,18.557l16.262,-16.265c0.39307,-0.38321 1.02065,-0.38099 1.411,0.005l9.4,9.4l-1.048,1.047c-0.19282,-0.52485 -0.5135,-0.99332 -0.933,-1.363c-1.3923,-1.15003 -3.435,-1.03549 -4.69,0.263l-11.11,11.113c-1.07254,1.13927 -1.97882,2.42429 -2.692,3.817l-6.607,-6.6c-0.191,-0.1867 -0.2981,-0.44289 -0.29678,-0.70998c0.00132,-0.26709 0.11094,-0.52222 0.30378,-0.70702zM54.793,50.207l1.5,1.5c0.39238,0.37897 1.01608,0.37355 1.40182,-0.01218c0.38573,-0.38573 0.39115,-1.00944 0.01218,-1.40182l-1.5,-1.5c-0.39238,-0.37897 -1.01608,-0.37355 -1.40182,0.01218c-0.38573,0.38573 -0.39115,1.00944 -0.01218,1.40182z"></path><path d="M51.793,47.207c0.39238,0.37897 1.01608,0.37355 1.40182,-0.01218c0.38573,-0.38573 0.39115,-1.00944 0.01218,-1.40182l-1.5,-1.5c-0.39238,-0.37897 -1.01608,-0.37355 -1.40182,0.01218c-0.38573,0.38573 -0.39115,1.00944 -0.01218,1.40182zM50.293,51.707c0.3905,0.39038 1.0235,0.39038 1.414,0l1.5,-1.5c0.37897,-0.39238 0.37355,-1.01608 -0.01218,-1.40182c-0.38573,-0.38573 -1.00944,-0.39115 -1.40182,-0.01218l-1.5,1.5c-0.39038,0.3905 -0.39038,1.0235 0,1.414zM54.793,47.207c0.3905,0.39038 1.0235,0.39038 1.414,0l1.5,-1.5c0.37897,-0.39238 0.37355,-1.01608 -0.01218,-1.40182c-0.38573,-0.38573 -1.00944,-0.39115 -1.40182,-0.01218l-1.5,1.5c-0.39038,0.3905 -0.39038,1.0235 0,1.414zM51,17.259c0.55228,0 1,-0.44772 1,-1v-2c0,-0.55228 -0.44772,-1 -1,-1c-0.55228,0 -1,0.44772 -1,1v2c0,0.55228 0.44772,1 1,1zM52,22.259v-2c0,-0.55228 -0.44772,-1 -1,-1c-0.55228,0 -1,0.44772 -1,1v2c0,0.55228 0.44772,1 1,1c0.55228,0 1,-0.44772 1,-1zM53,19.259h2c0.55228,0 1,-0.44772 1,-1c0,-0.55228 -0.44772,-1 -1,-1h-2c-0.55228,0 -1,0.44772 -1,1c0,0.55228 0.44772,1 1,1zM47,19.259h2c0.55228,0 1,-0.44772 1,-1c0,-0.55228 -0.44772,-1 -1,-1h-2c-0.55228,0 -1,0.44772 -1,1c0,0.55228 0.44772,1 1,1z"></path></g></g></g></g></svg>