<svg version="1.1" xmlns="http://www.w3.org/2000/svg" xmlns:xlink="http://www.w3.org/1999/xlink" width="512" height="512" viewBox="0,0,256,256"><g fill="#ffffff" fill-rule="evenodd" stroke="none" stroke-width="1" stroke-linecap="butt" stroke-linejoin="miter" stroke-miterlimit="10" stroke-dasharray="" stroke-dashoffset="0" font-family="none" font-weight="none" font-size="none" text-anchor="none" style="mix-blend-mode: normal"><g transform="translate(3.762,0.00863) scale(4,4)"><g><path d="M29.993,5c0.00106,-0.79598 -0.31467,-1.55965 -0.87751,-2.12249c-0.56284,-0.56284 -1.32652,-0.87857 -2.12249,-0.87751h-11c-5.522,0 -10,4.477 -10,10v2c0,1.65685 1.34315,3 3,3h4c0.79573,0.00027 1.55895,-0.31572 2.12161,-0.87839c0.56267,-0.56267 0.87865,-1.32588 0.87839,-2.12161v-1c0,-0.55228 0.44772,-1 1,-1h10c1.65685,0 3,-1.34315 3,-3zM27.993,5v4c0,0.55228 -0.44772,1 -1,1h-10c-1.65685,0 -3,1.34315 -3,3v1c0.0008,0.26546 -0.1043,0.52028 -0.29201,0.70799c-0.18771,0.18771 -0.44253,0.29281 -0.70799,0.29201h-4c-0.55228,0 -1,-0.44772 -1,-1v-2c0,-4.41828 3.58172,-8 8,-8h11c0.55228,0 1,0.44772 1,1z"></path><path d="M34.975,6.869c0.00053,-0.79581 -0.31537,-1.55918 -0.87809,-2.12191c-0.56272,-0.56272 -1.32609,-0.87862 -2.12191,-0.87809h-2.999c-0.55228,0 -1,0.44772 -1,1v3.999c0,0.55228 0.44772,1 1,1h3c0.79581,0.00053 1.55918,-0.31537 2.12191,-0.87809c0.56272,-0.56272 0.87862,-1.32609 0.87809,-2.12191zM32.975,6.869c0.00053,0.26538 -0.10465,0.52004 -0.29231,0.70769c-0.18765,0.18765 -0.44232,0.29284 -0.70769,0.29231h-2v-2h2c0.26538,-0.00053 0.52004,0.10465 0.70769,0.29231c0.18765,0.18765 0.29284,0.44232 0.29231,0.70769zM13.131,20.924c0.55228,0 1,-0.44772 1,-1v-3.998c0,-0.55228 -0.44772,-1 -1,-1h-3.999c-0.55228,0 -1,0.44772 -1,1v3.999c0,0.55228 0.44772,1 1,1zM12.131,18.924h-2v-1.998h2z"></path><path d="M13.133,19.052h-4.004c-2.38659,0.00027 -4.67531,0.94866 -6.36261,2.63651c-1.68729,1.68786 -2.63492,3.97689 -2.63439,6.36349v32.998c0,0.794 0.317,1.563 0.877,2.12c0.56071,0.56456 1.32331,0.88234 2.119,0.883h21c0.802,0 1.558,-0.32 2.127,-0.884c0.56,-0.556 0.877,-1.325 0.877,-2.119v-15.701c0,-0.998 -0.214,-1.98 -0.625,-2.889l-2.93,-6.48c-0.29261,-0.6482 -0.44526,-1.35082 -0.448,-2.062v-4.868c0,-2.65 -1.055,-5.195 -2.922,-7.069c-1.87709,-1.87471 -4.42108,-2.92841 -7.074,-2.93zM9.129,21.048h4.004c2.12235,0.00041 4.15734,0.84521 5.656,2.348c1.50216,1.49778 2.34507,3.53272 2.342,5.654v4.868c0,0.999 0.215,1.98 0.626,2.889l2.93,6.48c0.29,0.646 0.448,1.35 0.448,2.062v15.701c0,0.27 -0.112,0.524 -0.299,0.712c-0.19032,0.18365 -0.44453,0.28619 -0.709,0.286h-21c-0.26,0 -0.512,-0.106 -0.7,-0.286c-0.1894,-0.18871 -0.29652,-0.44464 -0.298,-0.712v-32.998c-0.0011,-3.8671 3.1329,-7.0029 7,-7.004zM18.443,11.693l7.777,7.777c0.39238,0.37897 1.01608,0.37355 1.40182,-0.01218c0.38573,-0.38573 0.39115,-1.00944 0.01218,-1.40182l-7.777,-7.777c-0.39238,-0.37897 -1.01608,-0.37355 -1.40182,0.01218c-0.38573,0.38573 -0.39115,1.00944 -0.01218,1.40182zM38,8h3c0.55228,0 1,-0.44772 1,-1c0,-0.55228 -0.44772,-1 -1,-1h-3c-0.55228,0 -1,0.44772 -1,1c0,0.55228 0.44772,1 1,1zM37.421,11.751l2.001,2.001c0.25107,0.25996 0.62288,0.36421 0.97251,0.2727c0.34963,-0.09152 0.62267,-0.36456 0.71419,-0.71419c0.09152,-0.34963 -0.01274,-0.72143 -0.2727,-0.97251l-2.001,-2.001c-0.25107,-0.25996 -0.62288,-0.36421 -0.97251,-0.2727c-0.34963,0.09152 -0.62267,0.36456 -0.71419,0.71419c-0.09152,0.34963 0.01274,0.72143 0.2727,0.97251zM38.835,3.663l2.001,-2.001c0.25996,-0.25107 0.36421,-0.62288 0.2727,-0.97251c-0.09152,-0.34963 -0.36456,-0.62267 -0.71419,-0.71419c-0.34963,-0.09152 -0.72143,0.01274 -0.97251,0.2727l-2.001,2.001c-0.25996,0.25107 -0.36421,0.62288 -0.2727,0.97251c0.09152,0.34963 0.36456,0.62267 0.71419,0.71419c0.34963,0.09152 0.72143,-0.01274 0.97251,-0.2727zM58.986,40.021c1.65702,0 3.00045,-1.34298 3.001,-3v-8.08c-0.00055,-1.65663 -1.34337,-2.99945 -3,-3h-30.007c-1.65702,0 -3.00045,1.34298 -3.001,3v8.08c0.00055,1.65663 1.34337,2.99945 3,3zM58.986,38.021h-30.005c-0.55183,-0.0011 -0.9989,-0.44817 -1,-1v-8.08c0.0011,-0.55183 0.44817,-0.9989 1,-1h30.005c0.55183,0.0011 0.9989,0.44817 1,1v8.08c-0.0011,0.55183 -0.44817,0.9989 -1,1zM41,50.011c0.0011,0.5515 0.4485,0.998 1,0.998h4c0.5515,0 0.9989,-0.4465 1,-0.998v-6.975c-0.0011,-0.5515 -0.4485,-0.998 -1,-0.998h-4c-0.5515,0 -0.9989,0.4465 -1,0.998zM43,49.013v-4.979h2v4.979z"></path><path d="M39,60.972c-0.00053,0.79609 0.31527,1.55977 0.87791,2.12297c0.56264,0.5632 1.326,0.87977 2.12209,0.88003h4c1.658,0 3,-1.345 3,-3.003v-8.985c0.00053,-0.79609 -0.31527,-1.55977 -0.87791,-2.12297c-0.56264,-0.5632 -1.326,-0.87977 -2.12209,-0.88003h-4c-1.658,0 -3,1.345 -3,3.003zM41,60.972v-8.985c-0.00027,-0.26539 0.10497,-0.52 0.29254,-0.70775c0.18757,-0.18775 0.44207,-0.29325 0.70746,-0.29325h4c0.26539,0 0.5199,0.10549 0.70746,0.29325c0.18757,0.18775 0.2928,0.44236 0.29254,0.70775v8.985c0.00027,0.26539 -0.10497,0.52 -0.29254,0.70775c-0.18757,0.18775 -0.44207,0.29325 -0.70746,0.29325h-4c-0.26539,0 -0.5199,-0.10549 -0.70746,-0.29325c-0.18757,-0.18775 -0.2928,-0.44236 -0.29254,-0.70775zM34,34.008h20c0.55228,0 1,-0.44772 1,-1c0,-0.55228 -0.44772,-1 -1,-1h-20c-0.55228,0 -1,0.44772 -1,1c0,0.55228 0.44772,1 1,1zM57.94,24.991c0,-1.65685 -1.34315,-3 -3,-3h-21.992c-1.65646,0.00055 -2.999,1.34354 -2.999,3v1.921c0,0.55228 0.44772,1 1,1h25.991c0.55228,0 1,-0.44772 1,-1zM55.94,24.991v0.92h-23.992v-0.92c0,-0.26512 0.10539,-0.51938 0.29295,-0.70675c0.18757,-0.18738 0.44192,-0.29251 0.70705,-0.29225h21.992c0.55189,0.00055 0.999,0.44811 0.999,1zM52.929,39c0,-0.55228 -0.44772,-1 -1,-1h-15.994c-0.55228,0 -1,0.44772 -1,1v2c0,1.65685 1.34315,3 3,3h11.995c1.65646,-0.00055 2.999,-1.34354 2.999,-3zM50.929,40v1c0,0.55228 -0.44772,1 -1,1h-11.994c-0.55228,0 -1,-0.44772 -1,-1v-1z"></path></g></g></g></svg>