<svg version="1.1" xmlns="http://www.w3.org/2000/svg" xmlns:xlink="http://www.w3.org/1999/xlink" width="35.219px" height="35.219px" viewBox="0,0,256,256"><g transform="translate(65.28,65.28) scale(0.49,0.49)"><g fill="#3c58c1" fill-rule="nonzero" stroke="none" stroke-width="1" stroke-linecap="butt" stroke-linejoin="miter" stroke-miterlimit="10" stroke-dasharray="" stroke-dashoffset="0" font-family="none" font-weight="none" font-size="none" text-anchor="none" style="mix-blend-mode: normal"><path d="M-133.22449,389.22449v-522.44898h522.44898v522.44898z" id="bgRectangle"></path></g><g fill="#ffffff" fill-rule="nonzero" stroke="none" stroke-width="1" stroke-linecap="butt" stroke-linejoin="miter" stroke-miterlimit="10" stroke-dasharray="" stroke-dashoffset="0" font-family="none" font-weight="none" font-size="none" text-anchor="none" style="mix-blend-mode: normal"><g transform="translate(0.00007,0.00007)"><g><g transform="scale(7.2688,7.2688)"><g><path d="M17.612,0c-6.607,0 -11.964,5.321 -11.964,11.885c0,3.358 3.294,9.374 3.294,9.374l8.229,13.96l8.586,-13.797c0,0 3.814,-5.74 3.814,-9.537c0.001,-6.564 -5.355,-11.885 -11.959,-11.885zM17.556,18.431c-3.784,0 -6.849,-3.065 -6.849,-6.853c0,-3.783 3.064,-6.846 6.849,-6.846c3.782,0 6.85,3.063 6.85,6.846c0,3.788 -3.068,6.853 -6.85,6.853z"></path></g></g></g></g></g></g></svg>