<svg version="1.1" xmlns="http://www.w3.org/2000/svg" xmlns:xlink="http://www.w3.org/1999/xlink" width="90px" height="90px" viewBox="0,0,256,256"><g fill="#ffffff" fill-rule="nonzero" stroke="none" stroke-width="1" stroke-linecap="butt" stroke-linejoin="miter" stroke-miterlimit="10" stroke-dasharray="" stroke-dashoffset="0" font-family="none" font-weight="none" font-size="none" text-anchor="none" style="mix-blend-mode: normal"><g transform="translate(0.0002,0.0002)"><g><g transform="scale(2.84444,2.84444)"><g><path d="M90,43.841c0,24.213 -19.779,43.841 -44.182,43.841c-7.747,0 -15.025,-1.98 -21.357,-5.455l-24.461,7.773l7.975,-23.522c-4.023,-6.606 -6.34,-14.354 -6.34,-22.637c0,-24.213 19.781,-43.841 44.183,-43.841c24.405,0 44.182,19.628 44.182,43.841zM45.818,6.982c-20.484,0 -37.146,16.535 -37.146,36.859c0,8.065 2.629,15.534 7.076,21.61l-4.641,13.689l14.275,-4.537c5.865,3.851 12.891,6.097 20.437,6.097c20.481,0 37.146,-16.533 37.146,-36.857c0,-20.324 -16.664,-36.861 -37.147,-36.861zM68.129,53.938c-0.273,-0.447 -0.994,-0.717 -2.076,-1.254c-1.084,-0.537 -6.41,-3.138 -7.4,-3.495c-0.993,-0.358 -1.717,-0.538 -2.438,0.537c-0.721,1.076 -2.797,3.495 -3.43,4.212c-0.632,0.719 -1.263,0.809 -2.347,0.271c-1.082,-0.537 -4.571,-1.673 -8.708,-5.333c-3.219,-2.848 -5.393,-6.364 -6.025,-7.441c-0.631,-1.075 -0.066,-1.656 0.475,-2.191c0.488,-0.482 1.084,-1.255 1.625,-1.882c0.543,-0.628 0.723,-1.075 1.082,-1.793c0.363,-0.717 0.182,-1.344 -0.09,-1.883c-0.27,-0.537 -2.438,-5.825 -3.34,-7.977c-0.902,-2.15 -1.803,-1.792 -2.436,-1.792c-0.631,0 -1.354,-0.09 -2.076,-0.09c-0.722,0 -1.896,0.269 -2.889,1.344c-0.992,1.076 -3.789,3.676 -3.789,8.963c0,5.288 3.879,10.397 4.422,11.113c0.541,0.716 7.49,11.92 18.5,16.223c11.011,4.301 11.011,2.866 12.997,2.686c1.984,-0.179 6.406,-2.599 7.312,-5.107c0.9,-2.512 0.9,-4.663 0.631,-5.111z" id="WhatsApp"></path></g><g font-family="Inter, apple-system, &quot;system-ui&quot;, &quot;Helvetica Neue&quot;, &quot;Segoe UI&quot;, &quot;Fira Sans&quot;, Roboto, Oxygen, Ubuntu, &quot;Droid Sans&quot;, Arial, sans-serif" font-weight="400" font-size="16" text-anchor="start"></g><g font-family="Inter, apple-system, &quot;system-ui&quot;, &quot;Helvetica Neue&quot;, &quot;Segoe UI&quot;, &quot;Fira Sans&quot;, Roboto, Oxygen, Ubuntu, &quot;Droid Sans&quot;, Arial, sans-serif" font-weight="400" font-size="16" text-anchor="start"></g><g font-family="Inter, apple-system, &quot;system-ui&quot;, &quot;Helvetica Neue&quot;, &quot;Segoe UI&quot;, &quot;Fira Sans&quot;, Roboto, Oxygen, Ubuntu, &quot;Droid Sans&quot;, Arial, sans-serif" font-weight="400" font-size="16" text-anchor="start"></g><g font-family="Inter, apple-system, &quot;system-ui&quot;, &quot;Helvetica Neue&quot;, &quot;Segoe UI&quot;, &quot;Fira Sans&quot;, Roboto, Oxygen, Ubuntu, &quot;Droid Sans&quot;, Arial, sans-serif" font-weight="400" font-size="16" text-anchor="start"></g><g font-family="Inter, apple-system, &quot;system-ui&quot;, &quot;Helvetica Neue&quot;, &quot;Segoe UI&quot;, &quot;Fira Sans&quot;, Roboto, Oxygen, Ubuntu, &quot;Droid Sans&quot;, Arial, sans-serif" font-weight="400" font-size="16" text-anchor="start"></g><g font-family="Inter, apple-system, &quot;system-ui&quot;, &quot;Helvetica Neue&quot;, &quot;Segoe UI&quot;, &quot;Fira Sans&quot;, Roboto, Oxygen, Ubuntu, &quot;Droid Sans&quot;, Arial, sans-serif" font-weight="400" font-size="16" text-anchor="start"></g><g font-family="Inter, apple-system, &quot;system-ui&quot;, &quot;Helvetica Neue&quot;, &quot;Segoe UI&quot;, &quot;Fira Sans&quot;, Roboto, Oxygen, Ubuntu, &quot;Droid Sans&quot;, Arial, sans-serif" font-weight="400" font-size="16" text-anchor="start"></g><g font-family="Inter, apple-system, &quot;system-ui&quot;, &quot;Helvetica Neue&quot;, &quot;Segoe UI&quot;, &quot;Fira Sans&quot;, Roboto, Oxygen, Ubuntu, &quot;Droid Sans&quot;, Arial, sans-serif" font-weight="400" font-size="16" text-anchor="start"></g><g font-family="Inter, apple-system, &quot;system-ui&quot;, &quot;Helvetica Neue&quot;, &quot;Segoe UI&quot;, &quot;Fira Sans&quot;, Roboto, Oxygen, Ubuntu, &quot;Droid Sans&quot;, Arial, sans-serif" font-weight="400" font-size="16" text-anchor="start"></g><g font-family="Inter, apple-system, &quot;system-ui&quot;, &quot;Helvetica Neue&quot;, &quot;Segoe UI&quot;, &quot;Fira Sans&quot;, Roboto, Oxygen, Ubuntu, &quot;Droid Sans&quot;, Arial, sans-serif" font-weight="400" font-size="16" text-anchor="start"></g><g font-family="Inter, apple-system, &quot;system-ui&quot;, &quot;Helvetica Neue&quot;, &quot;Segoe UI&quot;, &quot;Fira Sans&quot;, Roboto, Oxygen, Ubuntu, &quot;Droid Sans&quot;, Arial, sans-serif" font-weight="400" font-size="16" text-anchor="start"></g><g font-family="Inter, apple-system, &quot;system-ui&quot;, &quot;Helvetica Neue&quot;, &quot;Segoe UI&quot;, &quot;Fira Sans&quot;, Roboto, Oxygen, Ubuntu, &quot;Droid Sans&quot;, Arial, sans-serif" font-weight="400" font-size="16" text-anchor="start"></g><g font-family="Inter, apple-system, &quot;system-ui&quot;, &quot;Helvetica Neue&quot;, &quot;Segoe UI&quot;, &quot;Fira Sans&quot;, Roboto, Oxygen, Ubuntu, &quot;Droid Sans&quot;, Arial, sans-serif" font-weight="400" font-size="16" text-anchor="start"></g><g font-family="Inter, apple-system, &quot;system-ui&quot;, &quot;Helvetica Neue&quot;, &quot;Segoe UI&quot;, &quot;Fira Sans&quot;, Roboto, Oxygen, Ubuntu, &quot;Droid Sans&quot;, Arial, sans-serif" font-weight="400" font-size="16" text-anchor="start"></g><g font-family="Inter, apple-system, &quot;system-ui&quot;, &quot;Helvetica Neue&quot;, &quot;Segoe UI&quot;, &quot;Fira Sans&quot;, Roboto, Oxygen, Ubuntu, &quot;Droid Sans&quot;, Arial, sans-serif" font-weight="400" font-size="16" text-anchor="start"></g></g></g></g></g></svg>