<svg version="1.1" xmlns="http://www.w3.org/2000/svg" xmlns:xlink="http://www.w3.org/1999/xlink" width="512px" height="512px" viewBox="0,0,256,256"><g fill="#ffffff" fill-rule="nonzero" stroke="none" stroke-width="1" stroke-linecap="butt" stroke-linejoin="miter" stroke-miterlimit="10" stroke-dasharray="" stroke-dashoffset="0" font-family="none" font-weight="none" font-size="none" text-anchor="none" style="mix-blend-mode: normal"><g transform="scale(0.5,0.5)"><g><g><path d="M376,240h-240c-8.284,0 -15,6.716 -15,15v180c0,8.284 6.716,15 15,15h240c8.284,0 15,-6.716 15,-15v-180c0,-8.284 -6.716,-15 -15,-15zM241,420h-90v-60h90zM241,330h-90v-60h90zM361,420h-90v-60h90zM361,330h-90v-60h90z"></path></g></g><g><g><path d="M256,60c-74.434,0 -135,60.587 -135,135c0,8.284 6.716,14.8 15,14.8l119.984,0.2c0.004,0 0.009,0 0.013,0c0.003,0 0.004,0 0.007,0c0.004,0 0.008,0 0.012,0l119.984,-0.2c8.284,0 15,-6.516 15,-14.8c0,-74.433 -60.588,-135 -135,-135zM152.068,180c2.552,-17.764 9.572,-34.102 19.874,-47.846l47.845,47.846zM241,158.787l-47.845,-47.845c13.743,-10.301 30.082,-17.318 47.845,-19.87zM271,91.072c17.763,2.552 34.102,9.568 47.845,19.869l-47.845,47.846zM292.213,180l47.845,-47.846c10.302,13.744 17.322,30.082 19.874,47.846z"></path></g></g><g><g><path d="M466,420h-15v-225c0,-107.523 -87.477,-195 -195,-195c-107.523,0 -195,87.477 -195,195v225h-15c-8.284,0 -15,6.716 -15,15v62c0,8.284 6.716,15 15,15h420c8.284,0 15,-6.716 15,-15v-62c0,-8.284 -6.716,-15 -15,-15zM451,482h-390v-32h15c8.284,0 15,-6.716 15,-15v-240c0,-90.981 74.019,-165.2 165,-165.2c90.981,0 165,74.219 165,165.2v240c0,8.284 6.716,15 15,15h15z"></path></g></g></g></g></svg>