<svg version="1.1" xmlns="http://www.w3.org/2000/svg" xmlns:xlink="http://www.w3.org/1999/xlink" width="800px" height="800px" viewBox="0,0,256,256"><g fill="#ffffff" fill-rule="nonzero" stroke="none" stroke-width="1" stroke-linecap="butt" stroke-linejoin="miter" stroke-miterlimit="10" stroke-dasharray="" stroke-dashoffset="0" font-family="none" font-weight="none" font-size="none" text-anchor="none" style="mix-blend-mode: normal"><g transform="translate(0,-0.00025) scale(0.5,0.5)"><g><g><path d="M456.348,66.783h-400.696c-9.223,0 -16.696,7.473 -16.696,16.696v33.391c0,9.223 7.473,16.696 16.696,16.696h400.696c9.223,0 16.696,-7.473 16.696,-16.696v-33.392c-0.001,-9.222 -7.474,-16.695 -16.696,-16.695z"></path></g></g><g><g><path d="M72.348,166.957v328.348c0,9.22 7.475,16.696 16.696,16.696h333.913c9.22,0 16.696,-7.475 16.696,-16.696v-328.348zM172.522,428.522c0,9.223 -7.473,16.696 -16.696,16.696c-9.223,0 -16.696,-7.473 -16.696,-16.696v-211.479c0,-9.223 7.473,-16.696 16.696,-16.696c9.223,0 16.696,7.473 16.696,16.696zM272.696,428.522c0,9.223 -7.473,16.696 -16.696,16.696c-9.223,0 -16.696,-7.473 -16.696,-16.696v-211.479c0,-9.223 7.473,-16.696 16.696,-16.696c9.223,0 16.696,7.473 16.696,16.696zM372.87,428.522c0,9.223 -7.473,16.696 -16.696,16.696c-9.223,0 -16.696,-7.473 -16.696,-16.696v-211.479c0,-9.223 7.473,-16.696 16.696,-16.696c9.223,0 16.696,7.473 16.696,16.696z"></path></g></g><g><g><path d="M322.783,0h-133.566c-9.223,0 -16.696,7.473 -16.696,16.696v16.696h166.957v-16.696c0,-9.223 -7.473,-16.696 -16.695,-16.696z"></path></g></g></g></g></svg>